<svg width="601" height="151" viewBox="0 0 601 151" fill="none" xmlns="http://www.w3.org/2000/svg">
<g filter="url(#filter0_d_81_175)">
<path d="M51.8 103H22.6V142H0.6V1.99999H48C56.8 1.99999 64.1333 4.19999 70 8.59999C75.8667 12.8667 80.2 18.6 83 25.8C85.9333 33 87.4 40.9333 87.4 49.6C87.4 56.1333 87.1333 61.8 86.6 66.6C86.0667 71.4 84.6667 76.4 82.4 81.6C80.2667 86.8 76.8 91.4667 72 95.6L87.6 142H65.2L51.8 103ZM42.8 82C49.3333 82 54.1333 80.3333 57.2 77C60.4 73.5333 62.3333 69.6 63 65.2C63.8 60.8 64.2 55.6 64.2 49.6C64.2 42.5333 63.2 37.2 61.2 33.6C59.2 29.8667 56.4 27.4 52.8 26.2C49.2 24.8667 44.5333 24.2 38.8 24.2H22.6V82H42.8ZM127.091 112.2C127.091 115.933 128.091 118.867 130.091 121C132.224 123 135.291 124 139.291 124C145.424 124 153.624 121.333 163.891 116L171.891 135C167.091 138.067 161.624 140.4 155.491 142C149.357 143.6 143.224 144.4 137.091 144.4C127.224 144.4 119.357 142 113.491 137.2C107.757 132.267 104.891 124.933 104.891 115.2V74.2C104.891 63.4 108.224 55 114.891 49C121.691 43 130.624 40 141.691 40C152.757 40 161.357 43 167.491 49C173.757 54.8667 176.891 63.0667 176.891 73.6V104L127.091 106.6V112.2ZM154.691 74C154.691 70 153.424 66.9333 150.891 64.8C148.357 62.6667 145.224 61.6 141.491 61.6C136.424 61.6 132.757 62.9333 130.491 65.6C128.224 68.2667 127.091 71.2 127.091 74.4V86.4L154.691 84.6V74ZM180.955 41.8H204.955L223.555 103L241.755 41.8H265.555L234.155 142H212.955L180.955 41.8ZM296.78 23.6C293.58 23.6 290.78 22.4 288.38 20C285.98 17.6 284.78 14.8 284.78 11.6C284.78 8.53333 285.98 5.86666 288.38 3.59999C290.78 1.19999 293.58 -7.62939e-06 296.78 -7.62939e-06C299.846 -7.62939e-06 302.513 1.19999 304.78 3.59999C307.18 5.86666 308.38 8.53333 308.38 11.6C308.38 14.8 307.18 17.6 304.78 20C302.513 22.4 299.846 23.6 296.78 23.6ZM285.18 41.8H307.18V142H285.18V41.8ZM340.053 1.99999H385.653C399.653 1.99999 409.986 6.53333 416.653 15.6C423.453 24.5333 426.853 35.8 426.853 49.4C426.853 85.1333 413.72 103 387.453 103H362.053V142H340.053V1.99999ZM380.853 82C388.453 82 393.986 80.3333 397.453 77C401.053 73.6667 403.186 69.9333 403.853 65.8C404.52 61.5333 404.853 56.2 404.853 49.8C404.853 42.7333 403.853 37.3333 401.853 33.6C399.986 29.7333 397.253 27.2 393.653 26C390.186 24.6667 385.653 24 380.053 24H362.053V82H380.853ZM446.809 41.8H467.209L468.809 42.6C474.276 40.7333 479.409 39.8 484.209 39.8C487.543 39.8 492.409 40.4667 498.809 41.8L502.809 42.6L497.609 64C493.876 62.1333 490.209 61.2 486.609 61.2C481.676 61.2 477.476 62.7333 474.009 65.8C470.543 68.7333 468.809 72.6667 468.809 77.6V142H446.809V41.8ZM590.434 105.2C590.434 116.4 587.368 125.667 581.234 133C575.101 140.333 565.834 144 553.434 144C541.034 144 531.634 140.333 525.234 133C518.968 125.533 515.834 116.267 515.834 105.2V78.8C515.834 66.1333 519.034 56.4667 525.434 49.8C531.968 43 541.301 39.6 553.434 39.6C565.034 39.6 574.101 43.1333 580.634 50.2C587.168 57.1333 590.434 66.6667 590.434 78.8V105.2ZM568.634 78.8C568.634 71.7333 567.168 67.1333 564.234 65C561.301 62.8667 557.701 61.8 553.434 61.8C543.034 61.8 537.834 67.4667 537.834 78.8V107.2C537.834 112.533 539.301 116.4 542.234 118.8C545.168 121.2 548.901 122.4 553.434 122.4C557.834 122.4 561.434 121.133 564.234 118.6C567.168 116.067 568.634 112.267 568.634 107.2V78.8Z" fill="url(#paint0_linear_81_175)"/>
</g>
<defs>
<filter id="filter0_d_81_175" x="0.600006" y="0" width="599.834" height="150.4" filterUnits="userSpaceOnUse" color-interpolation-filters="sRGB">
<feFlood flood-opacity="0" result="BackgroundImageFix"/>
<feColorMatrix in="SourceAlpha" type="matrix" values="0 0 0 0 0 0 0 0 0 0 0 0 0 0 0 0 0 0 127 0" result="hardAlpha"/>
<feOffset dx="10" dy="6"/>
<feComposite in2="hardAlpha" operator="out"/>
<feColorMatrix type="matrix" values="0 0 0 0 1 0 0 0 0 1 0 0 0 0 1 0 0 0 0.68 0"/>
<feBlend mode="normal" in2="BackgroundImageFix" result="effect1_dropShadow_81_175"/>
<feBlend mode="normal" in="SourceGraphic" in2="effect1_dropShadow_81_175" result="shape"/>
</filter>
<linearGradient id="paint0_linear_81_175" x1="-15" y1="61" x2="617" y2="173" gradientUnits="userSpaceOnUse">
<stop offset="0.155" stop-color="#10407B"/>
<stop offset="0.8" stop-color="#D92A99"/>
</linearGradient>
</defs>
</svg>
